<?xml version="1.0" encoding="UTF-8"?>
<!DOCTYPE svg PUBLIC "-//W3C//DTD SVG 1.1//EN" "http://www.w3.org/Graphics/SVG/1.1/DTD/svg11.dtd">
<svg version="1.1" xmlns="http://www.w3.org/2000/svg" xmlns:xlink="http://www.w3.org/1999/xlink" x="0" y="0" width="1048.819" height="340.157" viewBox="0, 0, 1048.819, 340.157">
  <g id="Calque_1">
    <path d="M348.031,291.321 L348.031,289.897 Q351.23,289.968 353.743,289.968 Q356.064,289.968 358.753,289.897 L358.753,291.022 Q357.98,291.268 357.277,291.602 Q357.066,293.378 357.066,294.626 Q357.066,295.522 357.277,298.177 Q353.796,299.442 351.449,299.891 Q349.103,300.339 346.589,300.339 Q339.804,300.339 335.963,296.814 Q332.122,293.29 332.122,287.683 Q332.122,281.917 336.042,278.454 Q339.962,274.991 347.292,274.991 Q349.876,274.991 352.249,275.395 Q354.622,275.8 356.767,276.626 L356.925,276.89 Q356.415,279.122 356.169,282.444 L354.693,282.444 Q354.675,280.774 354.464,279.491 Q353.339,278.19 351.573,277.54 Q349.806,276.89 347.398,276.89 Q342.88,276.89 340.199,279.632 Q337.519,282.374 337.519,287.138 Q337.519,292.218 340.34,295.32 Q343.161,298.423 347.292,298.423 Q349.49,298.423 351.968,297.35 Q352.109,295.997 352.109,294.784 Q352.109,292.077 351.792,291.796 Q351.476,291.515 348.031,291.321 z" fill="#000000"/>
    <path d="M361.144,285.731 L361.144,284.378 Q363.956,284.114 366.4,283.376 L368.14,282.761 Q368.456,282.761 368.456,283.165 L368.386,284.202 Q368.087,288.245 368.087,292.007 Q368.087,294.433 368.333,295.232 Q368.579,296.032 369.221,296.472 Q369.863,296.911 370.935,296.911 Q372.183,296.911 373.123,296.225 Q374.064,295.54 374.283,294.714 Q374.503,293.888 374.503,290.003 Q374.503,286.892 374.398,286.364 Q374.327,286.083 374.152,285.977 Q373.888,285.837 371.761,285.731 L371.761,284.378 Q375.365,283.974 377.052,283.429 L378.915,282.761 Q379.214,282.761 379.214,283.13 L379.179,283.604 Q378.88,286.663 378.88,294.696 Q378.88,297.157 379.021,297.79 Q379.109,298.089 379.302,298.212 Q379.583,298.37 381.517,298.511 L381.517,299.97 Q379.495,299.864 377.509,299.864 Q375.892,299.864 374.503,299.97 L374.345,299.653 Q374.433,298.774 374.503,296.893 Q372.868,298.212 371.339,299.794 Q370.091,300.339 368.878,300.339 Q367.261,300.339 366.066,299.688 Q364.87,299.038 364.299,297.992 Q363.728,296.946 363.728,295.048 L363.763,293.132 Q363.816,291.356 363.816,290.249 Q363.816,287.12 363.693,286.505 Q363.605,286.1 363.323,285.934 Q363.042,285.767 361.144,285.731 z" fill="#000000"/>
    <path d="M388.46,274.481 Q389.585,274.481 390.385,275.281 Q391.185,276.081 391.185,277.224 Q391.185,278.349 390.385,279.148 Q389.585,279.948 388.443,279.948 Q387.318,279.948 386.518,279.148 Q385.718,278.349 385.718,277.224 Q385.718,276.081 386.518,275.281 Q387.318,274.481 388.46,274.481 z M383.556,299.97 L383.556,298.511 Q385.542,298.44 385.85,298.265 Q386.157,298.089 386.245,297.28 Q386.386,296.173 386.386,292.393 Q386.386,290.759 386.333,289.37 L386.281,287.313 Q386.281,286.294 386.061,286.057 Q385.841,285.819 384.874,285.784 L383.556,285.731 L383.556,284.378 Q387.792,284.061 390.534,282.884 L390.974,283.235 Q390.728,286.593 390.728,293.009 Q390.728,296.718 390.851,297.491 Q390.939,298.036 391.176,298.194 Q391.413,298.352 393.488,298.511 L393.488,299.97 Q390.306,299.864 388.566,299.864 Q387.634,299.864 383.556,299.97 z" fill="#000000"/>
    <path d="M397.97,288.28 L396.476,288.28 Q396.634,286.224 396.634,284.431 L396.616,283.411 L396.827,283.27 Q402.206,283.393 403.419,283.393 Q406.917,283.393 411.171,283.27 L411.171,284.501 Q405.458,291.901 401.345,297.948 L404.509,297.966 Q408.64,297.966 409.115,297.676 Q409.589,297.386 409.87,295.241 L409.993,294.257 L411.54,294.257 Q411.241,296.542 411.171,299.724 L410.995,299.97 Q409.343,300.022 408.534,300.022 L405.687,299.97 Q401.327,299.864 400.361,299.864 L395.087,299.97 L395.087,298.739 Q396.863,296.612 399.271,293.378 Q402.874,288.544 405.177,285.204 L401.96,285.204 Q399.693,285.204 399.095,285.309 Q398.673,285.38 398.506,285.6 Q398.339,285.819 398.146,286.997 z" fill="#000000"/>
    <path d="M413.878,291.62 Q413.878,287.454 415.829,285.362 Q418.167,282.884 422.579,282.884 Q426.974,282.884 428.995,284.87 Q431.017,286.856 431.017,291.145 Q431.017,295.558 428.688,297.948 Q426.359,300.339 422.21,300.339 Q418.132,300.339 416.005,298.106 Q413.878,295.874 413.878,291.62 z M418.747,290.407 Q418.747,295.083 419.943,297.069 Q420.874,298.599 422.738,298.599 Q424.372,298.599 425.26,297.298 Q426.148,295.997 426.148,292.569 Q426.148,287.858 425.058,286.048 Q424.161,284.606 422.263,284.606 Q420.628,284.606 419.688,285.925 Q418.747,287.243 418.747,290.407 z" fill="#000000"/>
    <path d="M432.863,285.854 L435.2,284.325 Q435.165,281.214 435.042,278.876 Q437.433,278.138 439.56,277.083 L440.087,277.487 Q439.7,280.036 439.56,284.325 Q440.368,284.448 441.159,284.448 Q442.952,284.448 444.376,284.22 L444.534,284.325 L444.376,284.958 Q444.113,285.942 443.99,286.768 Q441.933,286.61 440.966,286.61 Q440.245,286.61 439.56,286.698 Q439.525,288.474 439.525,289.827 Q439.525,295.733 439.876,296.542 Q440.228,297.35 441.546,297.35 Q441.933,297.35 442.381,297.263 Q442.829,297.175 443.339,297.017 L443.638,297.684 Q442.583,298.862 441.581,300.128 Q440.931,300.233 440.386,300.286 Q439.841,300.339 439.384,300.339 Q437.907,300.339 436.914,299.829 Q435.921,299.319 435.473,298.511 Q435.025,297.702 435.025,296.102 Q435.025,295.259 435.113,291.673 Q435.2,288.526 435.2,286.698 L434.304,286.663 Q433.741,286.663 432.863,286.768 z" fill="#000000"/>
    <path d="M482.661,295.347 L483.224,296.507 Q481.431,298.282 479.937,300.058 Q478.794,300.339 477.827,300.339 Q474.698,300.339 471.306,297.843 Q469.531,299.196 467.834,299.767 Q466.138,300.339 464.046,300.339 Q460.267,300.339 458.034,298.3 Q455.802,296.261 455.802,293.272 Q455.802,291.181 456.953,289.581 Q458.105,287.981 461.409,286.241 Q460.232,283.675 460.232,281.759 Q460.232,280.669 460.46,279.983 Q460.583,279.597 461.163,278.964 L462.429,277.575 Q463.87,275.958 464.591,275.624 Q465.945,274.991 467.245,274.991 Q468.3,274.991 469.267,275.51 Q470.234,276.028 470.726,276.907 Q471.218,277.786 471.218,278.946 Q471.218,280.827 469.935,282.33 Q468.652,283.833 465.523,285.854 Q468.3,290.143 472.818,294.011 Q473.503,292.991 473.749,292.27 Q473.995,291.55 473.995,290.671 Q473.995,289.388 473.275,288.052 L472.396,288.052 Q471.728,288.034 470.198,288.14 L470.005,287.858 Q470.673,286.874 471.165,285.696 Q474.031,285.819 476.351,285.819 Q479.99,285.819 482.292,285.52 L482.538,285.696 Q482.046,286.997 481.923,288.227 L481.695,288.438 Q478.249,288.175 476.65,288.14 Q476.878,288.86 476.878,289.44 Q476.878,292.13 474.382,294.995 Q477.37,296.735 480.007,296.735 Q480.429,296.735 480.745,296.577 Q481.659,296.102 482.661,295.347 z M464.749,284.343 Q466.665,283.077 467.412,281.943 Q468.159,280.809 468.159,279.702 Q468.159,278.999 467.878,278.428 Q467.597,277.856 467.034,277.522 Q466.472,277.188 466.015,277.188 Q465.241,277.188 464.433,277.848 Q463.624,278.507 463.624,279.931 Q463.624,281.899 464.749,284.343 z M462.13,287.7 Q460.161,288.966 460.161,291.321 Q460.161,293.905 462.077,295.909 Q463.993,297.913 466.366,297.913 Q468.019,297.913 469.794,296.718 Q467.316,294.679 465.602,292.657 Q463.888,290.636 462.13,287.7 z" fill="#000000"/>
    <path d="M494.948,292.552 L496.495,292.552 Q496.513,295.153 496.662,295.601 Q496.812,296.05 497.673,296.779 Q498.534,297.509 499.906,297.966 Q501.277,298.423 502.718,298.423 Q505.197,298.423 506.682,297.104 Q508.167,295.786 508.167,293.817 Q508.167,292.007 507.183,291.04 Q506.181,290.073 503.386,289.669 Q499.238,289.071 497.787,288.368 Q496.337,287.665 495.502,286.259 Q494.667,284.852 494.667,282.884 Q494.667,279.579 496.996,277.285 Q499.325,274.991 504.441,274.991 Q506.445,274.991 508,275.29 Q509.556,275.589 511.12,276.274 L511.296,276.696 Q511.015,277.804 510.901,278.7 Q510.786,279.597 510.698,281.794 L509.169,281.794 Q509.081,279.087 508.906,278.753 Q508.572,278.173 507.209,277.531 Q505.847,276.89 504.089,276.89 Q501.681,276.89 500.354,278.059 Q499.027,279.227 499.027,281.073 Q499.027,282.198 499.572,283.033 Q500.116,283.868 501.092,284.264 Q502.068,284.659 505.284,285.169 Q508.202,285.608 509.24,286.03 Q510.945,286.716 511.823,288.122 Q512.702,289.528 512.702,291.673 Q512.702,295.399 509.855,297.869 Q507.007,300.339 502.068,300.339 Q499.87,300.339 498.077,299.917 Q496.284,299.495 494.368,298.528 Q494.685,297.298 494.79,296.296 Q494.931,294.907 494.948,292.552 z" fill="#000000"/>
    <path d="M531.634,298.511 L531.634,299.97 L530.281,299.917 Q529.208,299.864 528.136,299.864 Q526.484,299.864 525.007,299.97 L524.831,299.776 L525.007,297.35 L521.333,300.11 Q520.349,300.339 519.593,300.339 Q517.73,300.339 516.71,299.231 Q515.691,298.124 515.691,295.997 Q515.691,293.378 517.079,292.306 Q518.872,290.899 525.007,289.792 Q524.972,287.718 524.286,286.786 Q523.32,285.503 521.298,285.503 Q520.823,285.503 520.323,285.617 Q519.822,285.731 519.312,285.977 L518.521,287.858 L517.308,287.559 L517.343,286.768 L517.325,285.995 L517.308,285.292 Q519.997,283.622 521.175,283.2 Q522.036,282.884 523.566,282.884 Q525.64,282.884 526.941,283.508 Q528.241,284.132 528.839,285.204 Q529.437,286.276 529.437,288.333 Q529.437,289.194 529.366,291.409 Q529.296,293.694 529.296,295.083 Q529.296,297.28 529.419,297.755 Q529.49,298.036 529.762,298.194 Q530.034,298.352 531.634,298.511 z M525.007,291.304 Q521.913,291.972 520.982,292.754 Q520.05,293.536 520.05,294.854 Q520.05,295.927 520.648,296.542 Q521.245,297.157 522.159,297.157 Q523.548,297.157 525.007,295.593 z" fill="#000000"/>
    <path d="M538.437,274.481 Q539.562,274.481 540.362,275.281 Q541.161,276.081 541.161,277.224 Q541.161,278.349 540.362,279.148 Q539.562,279.948 538.419,279.948 Q537.294,279.948 536.494,279.148 Q535.695,278.349 535.695,277.224 Q535.695,276.081 536.494,275.281 Q537.294,274.481 538.437,274.481 z M533.532,299.97 L533.532,298.511 Q535.519,298.44 535.826,298.265 Q536.134,298.089 536.222,297.28 Q536.363,296.173 536.363,292.393 Q536.363,290.759 536.31,289.37 L536.257,287.313 Q536.257,286.294 536.037,286.057 Q535.818,285.819 534.851,285.784 L533.532,285.731 L533.532,284.378 Q537.769,284.061 540.511,282.884 L540.95,283.235 Q540.704,286.593 540.704,293.009 Q540.704,296.718 540.827,297.491 Q540.915,298.036 541.153,298.194 Q541.39,298.352 543.464,298.511 L543.464,299.97 Q540.282,299.864 538.542,299.864 Q537.611,299.864 533.532,299.97 z" fill="#000000"/>
    <path d="M545.415,299.97 L545.415,298.511 Q547.331,298.405 547.577,298.203 Q547.823,298.001 547.876,297.298 Q547.982,295.522 547.982,291.04 Q547.982,288.825 547.929,287.225 Q547.894,286.241 547.788,286.065 Q547.7,285.925 547.507,285.854 Q547.314,285.784 545.415,285.731 L545.415,284.378 Q546.365,284.378 548.377,283.974 Q550.39,283.569 551.761,283.042 L552.236,282.884 Q552.482,282.884 552.482,283.288 L552.464,283.446 Q552.411,283.938 552.411,285.977 L555.136,283.692 Q555.646,283.253 556.191,283.095 Q556.964,282.884 558.072,282.884 Q559.935,282.884 561.121,283.525 Q562.308,284.167 562.862,285.301 Q563.415,286.434 563.415,288.825 Q563.415,289.88 563.363,291.268 Q563.275,294.116 563.275,296.19 Q563.275,297.368 563.468,297.825 Q563.609,298.142 563.864,298.247 Q564.118,298.352 565.788,298.511 L565.788,299.97 L563.626,299.899 L562.238,299.864 L558.616,299.97 L558.423,299.741 Q558.88,296.401 558.88,292.886 Q558.88,288.421 558.335,287.384 Q557.632,286.048 555.769,286.048 Q554.573,286.048 553.695,286.654 Q552.816,287.261 552.552,287.946 Q552.429,288.227 552.429,289.722 Q552.429,296.085 552.482,297.008 Q552.534,297.931 552.781,298.142 Q553.097,298.405 555.136,298.511 L555.136,299.97 Q552.077,299.864 549.968,299.864 Q548.72,299.864 545.415,299.97 z" fill="#000000"/>
    <path d="M566.808,285.854 L569.146,284.325 Q569.111,281.214 568.988,278.876 Q571.378,278.138 573.505,277.083 L574.032,277.487 Q573.646,280.036 573.505,284.325 Q574.314,284.448 575.105,284.448 Q576.898,284.448 578.322,284.22 L578.48,284.325 L578.322,284.958 Q578.058,285.942 577.935,286.768 Q575.878,286.61 574.911,286.61 Q574.191,286.61 573.505,286.698 Q573.47,288.474 573.47,289.827 Q573.47,295.733 573.822,296.542 Q574.173,297.35 575.491,297.35 Q575.878,297.35 576.326,297.263 Q576.775,297.175 577.284,297.017 L577.583,297.684 Q576.529,298.862 575.527,300.128 Q574.876,300.233 574.331,300.286 Q573.786,300.339 573.329,300.339 Q571.853,300.339 570.86,299.829 Q569.866,299.319 569.418,298.511 Q568.97,297.702 568.97,296.102 Q568.97,295.259 569.058,291.673 Q569.146,288.526 569.146,286.698 L568.249,286.663 Q567.687,286.663 566.808,286.768 z" fill="#000000"/>
    <path d="M578.814,293.202 L578.568,292.868 Q579.271,291.339 579.728,289.194 Q582.98,289.317 585.036,289.317 Q587.198,289.317 589.976,289.194 L590.222,289.546 Q589.572,291.145 588.991,293.202 Q586.073,293.097 583.771,293.097 Q581.415,293.097 578.814,293.202 z" fill="#000000"/>
    <path d="M592.771,299.987 L592.771,299.073 Q593.738,298.616 594.599,298.001 Q594.827,293.237 594.827,288.069 Q594.827,284.009 594.74,280.405 Q594.687,277.839 594.493,277.452 Q594.406,277.224 594.133,277.109 Q593.861,276.995 591.575,276.802 L591.575,275.325 Q594.968,275.413 597.868,275.413 Q600.681,275.413 603.195,275.325 L603.195,276.802 Q600.769,276.96 600.4,277.224 Q600.171,277.382 600.074,277.865 Q599.978,278.349 599.925,283.552 L599.82,292.112 Q599.82,294.52 599.943,297.684 Q602.245,297.808 603.353,297.808 Q606.675,297.808 608.943,297.298 Q609.4,295.698 609.839,293.483 L611.386,293.483 Q610.999,295.997 610.7,299.724 Q609.031,299.97 607.624,299.97 L601.261,299.899 L598.413,299.864 Q596.445,299.847 592.771,299.987 z" fill="#000000"/>
    <path d="M629.579,298.511 L629.579,299.97 L628.226,299.917 Q627.154,299.864 626.081,299.864 Q624.429,299.864 622.952,299.97 L622.777,299.776 L622.952,297.35 L619.279,300.11 Q618.294,300.339 617.538,300.339 Q615.675,300.339 614.656,299.231 Q613.636,298.124 613.636,295.997 Q613.636,293.378 615.025,292.306 Q616.818,290.899 622.952,289.792 Q622.917,287.718 622.232,286.786 Q621.265,285.503 619.243,285.503 Q618.769,285.503 618.268,285.617 Q617.767,285.731 617.257,285.977 L616.466,287.858 L615.253,287.559 L615.288,286.768 L615.271,285.995 L615.253,285.292 Q617.943,283.622 619.12,283.2 Q619.982,282.884 621.511,282.884 Q623.585,282.884 624.886,283.508 Q626.187,284.132 626.784,285.204 Q627.382,286.276 627.382,288.333 Q627.382,289.194 627.312,291.409 Q627.241,293.694 627.241,295.083 Q627.241,297.28 627.365,297.755 Q627.435,298.036 627.707,298.194 Q627.98,298.352 629.579,298.511 z M622.952,291.304 Q619.859,291.972 618.927,292.754 Q617.995,293.536 617.995,294.854 Q617.995,295.927 618.593,296.542 Q619.191,297.157 620.105,297.157 Q621.493,297.157 622.952,295.593 z" fill="#000000"/>
    <path d="M631.056,285.731 L631.056,284.378 Q633.868,284.114 636.312,283.376 L638.052,282.761 Q638.368,282.761 638.368,283.165 L638.298,284.202 Q637.999,288.245 637.999,292.007 Q637.999,294.433 638.245,295.232 Q638.491,296.032 639.133,296.472 Q639.775,296.911 640.847,296.911 Q642.095,296.911 643.035,296.225 Q643.976,295.54 644.196,294.714 Q644.415,293.888 644.415,290.003 Q644.415,286.892 644.31,286.364 Q644.24,286.083 644.064,285.977 Q643.8,285.837 641.673,285.731 L641.673,284.378 Q645.277,283.974 646.964,283.429 L648.827,282.761 Q649.126,282.761 649.126,283.13 L649.091,283.604 Q648.792,286.663 648.792,294.696 Q648.792,297.157 648.933,297.79 Q649.021,298.089 649.214,298.212 Q649.495,298.37 651.429,298.511 L651.429,299.97 Q649.407,299.864 647.421,299.864 Q645.804,299.864 644.415,299.97 L644.257,299.653 Q644.345,298.774 644.415,296.893 Q642.781,298.212 641.251,299.794 Q640.003,300.339 638.79,300.339 Q637.173,300.339 635.978,299.688 Q634.782,299.038 634.211,297.992 Q633.64,296.946 633.64,295.048 L633.675,293.132 Q633.728,291.356 633.728,290.249 Q633.728,287.12 633.605,286.505 Q633.517,286.1 633.236,285.934 Q632.954,285.767 631.056,285.731 z" fill="#000000"/>
    <path d="M652.73,299.97 L652.73,298.511 Q654.505,298.423 654.769,298.3 Q654.98,298.194 655.103,297.966 Q655.296,297.544 655.331,296.102 Q655.402,293.536 655.402,291.427 Q655.402,287.366 655.296,286.61 Q655.243,286.171 654.98,285.986 Q654.716,285.802 652.73,285.731 L652.73,284.378 Q656.281,284.044 657.81,283.552 L659.62,282.884 Q659.866,282.884 659.866,283.218 L659.849,283.464 Q659.779,284.571 659.779,286.645 Q660.675,285.784 661.765,284.466 Q662.573,283.481 663.171,283.183 Q663.769,282.884 664.771,282.884 Q665.333,282.884 665.913,283.077 Q665.755,284.835 665.702,287.858 L664.911,288.14 Q664.507,287.454 664.024,287.182 Q663.54,286.909 662.767,286.909 Q661.712,286.909 660.956,287.454 Q660.2,287.999 659.99,288.702 Q659.849,289.229 659.849,292.288 Q659.849,296.735 659.972,297.474 Q660.042,297.966 660.306,298.142 Q660.71,298.405 662.96,298.511 L662.96,299.97 L660.991,299.917 Q659.111,299.864 657.74,299.864 Q656.439,299.864 654.716,299.917 z" fill="#000000"/>
    <path d="M682.068,296.559 L682.577,297.069 L681.786,298.757 Q680.521,299.548 679.071,299.943 Q677.62,300.339 675.986,300.339 Q672.154,300.339 669.948,298.115 Q667.741,295.892 667.741,291.866 Q667.741,289.317 668.392,287.647 Q668.919,286.294 670.123,285.397 Q671.327,284.501 672.901,283.692 Q674.474,282.884 676.355,282.884 Q679.238,282.884 681.118,284.492 Q682.999,286.1 682.999,289.669 Q682.999,290.108 682.947,291.005 L680.064,291.532 Q678.728,291.62 676.197,291.62 L672.382,291.62 Q672.646,294.643 674.193,296.173 Q675.74,297.702 678.13,297.702 Q679.132,297.702 680.116,297.412 Q681.101,297.122 682.068,296.559 z M672.259,289.757 Q673.841,289.897 675.423,289.897 Q676.812,289.897 678.341,289.757 L678.359,288.931 Q678.359,286.768 677.568,285.775 Q676.777,284.782 675.423,284.782 Q674.474,284.782 673.788,285.248 Q673.103,285.714 672.769,286.558 Q672.435,287.401 672.259,289.757 z" fill="#000000"/>
    <path d="M685.372,299.97 L685.372,298.511 Q687.288,298.405 687.534,298.203 Q687.781,298.001 687.833,297.298 Q687.939,295.522 687.939,291.04 Q687.939,288.825 687.886,287.225 Q687.851,286.241 687.745,286.065 Q687.657,285.925 687.464,285.854 Q687.271,285.784 685.372,285.731 L685.372,284.378 Q686.322,284.378 688.334,283.974 Q690.347,283.569 691.718,283.042 L692.193,282.884 Q692.439,282.884 692.439,283.288 L692.421,283.446 Q692.368,283.938 692.368,285.977 L695.093,283.692 Q695.603,283.253 696.148,283.095 Q696.921,282.884 698.029,282.884 Q699.892,282.884 701.078,283.525 Q702.265,284.167 702.819,285.301 Q703.372,286.434 703.372,288.825 Q703.372,289.88 703.32,291.268 Q703.232,294.116 703.232,296.19 Q703.232,297.368 703.425,297.825 Q703.566,298.142 703.821,298.247 Q704.075,298.352 705.745,298.511 L705.745,299.97 L703.583,299.899 L702.195,299.864 L698.573,299.97 L698.38,299.741 Q698.837,296.401 698.837,292.886 Q698.837,288.421 698.292,287.384 Q697.589,286.048 695.726,286.048 Q694.531,286.048 693.652,286.654 Q692.773,287.261 692.509,287.946 Q692.386,288.227 692.386,289.722 Q692.386,296.085 692.439,297.008 Q692.491,297.931 692.738,298.142 Q693.054,298.405 695.093,298.511 L695.093,299.97 Q692.034,299.864 689.925,299.864 Q688.677,299.864 685.372,299.97 z" fill="#000000"/>
    <path d="M706.765,285.854 L709.103,284.325 Q709.068,281.214 708.945,278.876 Q711.335,278.138 713.462,277.083 L713.99,277.487 Q713.603,280.036 713.462,284.325 Q714.271,284.448 715.062,284.448 Q716.855,284.448 718.279,284.22 L718.437,284.325 L718.279,284.958 Q718.015,285.942 717.892,286.768 Q715.835,286.61 714.868,286.61 Q714.148,286.61 713.462,286.698 Q713.427,288.474 713.427,289.827 Q713.427,295.733 713.779,296.542 Q714.13,297.35 715.448,297.35 Q715.835,297.35 716.283,297.263 Q716.732,297.175 717.241,297.017 L717.54,297.684 Q716.486,298.862 715.484,300.128 Q714.833,300.233 714.288,300.286 Q713.743,300.339 713.286,300.339 Q711.81,300.339 710.817,299.829 Q709.823,299.319 709.375,298.511 Q708.927,297.702 708.927,296.102 Q708.927,295.259 709.015,291.673 Q709.103,288.526 709.103,286.698 L708.206,286.663 Q707.644,286.663 706.765,286.768 z" fill="#000000"/>
    <g id="g3125">
      <path d="M483.584,75.463 C482.243,73.026 479.279,69.943 474.485,69.885 C474.449,69.882 474.411,69.882 474.372,69.882 C474.337,69.882 441.913,69.885 441.913,69.885 L442.308,69.374 L442.807,68.792 C442.807,68.792 443.559,67.802 444.652,66.368 L453.159,55.481 C453.159,55.478 453.162,55.478 453.162,55.478 C453.162,55.475 453.162,55.475 453.162,55.472 L453.166,55.472 C456.146,51.649 455.468,46.138 451.648,43.155 C447.829,40.171 442.315,40.846 439.331,44.663 L439.328,44.663 L419.626,69.882 L409.077,69.882 C407.553,69.885 406.187,70.573 405.264,71.647 L405.238,71.676 L398.435,80.373 C398.111,80.858 397.921,81.44 397.921,82.067 C397.921,83.739 399.255,84.948 400.917,84.989 L407.833,84.989 L396.352,99.673 C393.368,103.492 394.043,109.009 397.866,111.993 C399.705,113.43 401.937,114.015 404.087,113.816 C411.366,113.816 452.699,113.813 452.735,113.813 C457.541,113.752 464.373,109.916 468.074,105.145 C468.08,105.135 482.812,86.218 482.812,86.218 C483.902,84.755 486.078,80 483.584,75.463 M440.537,98.461 L419.648,98.461 L430.126,84.993 L456.554,84.996 L456.554,84.989 C456.632,84.989 456.718,84.983 456.792,84.989 L457.024,84.989 C458.49,85.025 459.695,86.24 459.695,87.716 C459.695,88.272 459.528,88.786 459.239,89.217 L453.23,96.898 L453.207,96.927 C452.391,97.875 451.185,98.48 449.838,98.483 L440.537,98.461 z" fill="#000000" id="path68"/>
      <path d="M515.159,97.444 C510.957,99.862 509.51,105.228 511.928,109.43 C514.345,113.629 519.711,115.079 523.914,112.661 L558.315,92.875 L558.315,105.057 L558.315,105.07 C558.315,109.919 562.244,113.847 567.092,113.847 C571.94,113.847 575.872,109.919 575.872,105.07 L575.872,105.057 L575.872,84.957 L536.71,85.047 L515.159,97.444 z" fill="#000000" id="path72"/>
      <path d="M622.683,45.727 C620.266,41.529 614.906,40.079 610.701,42.493 L575.872,62.523 L575.872,50.077 C575.869,45.232 571.94,41.304 567.091,41.304 C562.246,41.304 558.318,45.232 558.314,50.077 L558.404,70.104 L598.005,70.104 L619.449,57.717 C619.449,57.717 619.452,57.713 619.452,57.713 L619.456,57.713 L619.456,57.71 C623.654,55.292 625.098,49.93 622.683,45.727" fill="#000000" id="path76"/>
      <path d="M650.954,43.155 C647.135,40.171 641.621,40.847 638.637,44.663 L618.829,70.014 L641.11,70.014 L652.462,55.482 C652.465,55.478 652.465,55.478 652.469,55.478 C652.469,55.475 652.469,55.475 652.469,55.472 L652.472,55.472 C655.449,51.649 654.774,46.139 650.954,43.155" fill="#000000" id="path80"/>
      <path d="M595.659,99.672 C592.676,103.491 593.351,109.008 597.17,111.992 C600.993,114.979 606.507,114.297 609.494,110.481 L629.421,85.008 L607.137,85.008 L595.659,99.672 z" fill="#000000" id="path84"/>
      <path d="M537.328,43.155 C533.509,40.171 527.995,40.847 525.012,44.663 L505.342,70.014 L527.622,70.014 L538.84,55.482 C538.84,55.478 538.84,55.478 538.843,55.478 C538.843,55.475 538.843,55.475 538.846,55.472 L538.846,55.472 C541.826,51.649 541.148,46.139 537.328,43.155" fill="#000000" id="path88"/>
      <path d="M482.033,99.672 C479.049,103.491 479.724,109.008 483.547,111.992 C487.366,114.979 492.884,114.297 495.867,110.481 L516.199,84.873 L493.919,84.873 L482.033,99.672 z" fill="#000000" id="path92"/>
    </g>
  </g>
</svg>
